<svg width="244" height="35" viewBox="0 0 244 35" fill="none" xmlns="http://www.w3.org/2000/svg">
<path d="M9.85213 14.126C9.85213 15.17 9.49213 16.04 8.77213 16.736C8.06413 17.42 6.97813 17.762 5.51413 17.762H3.10213V23H1.46413V10.454H5.51413C6.93013 10.454 8.00413 10.796 8.73613 11.48C9.48013 12.164 9.85213 13.046 9.85213 14.126ZM5.51413 16.412C6.42613 16.412 7.09813 16.214 7.53013 15.818C7.96213 15.422 8.17813 14.858 8.17813 14.126C8.17813 12.578 7.29013 11.804 5.51413 11.804H3.10213V16.412H5.51413ZM16.19 23.162C15.266 23.162 14.426 22.952 13.67 22.532C12.926 22.112 12.338 21.518 11.906 20.75C11.486 19.97 11.276 19.07 11.276 18.05C11.276 17.042 11.492 16.154 11.924 15.386C12.368 14.606 12.968 14.012 13.724 13.604C14.48 13.184 15.326 12.974 16.262 12.974C17.198 12.974 18.044 13.184 18.8 13.604C19.556 14.012 20.15 14.6 20.582 15.368C21.026 16.136 21.248 17.03 21.248 18.05C21.248 19.07 21.02 19.97 20.564 20.75C20.12 21.518 19.514 22.112 18.746 22.532C17.978 22.952 17.126 23.162 16.19 23.162ZM16.19 21.722C16.778 21.722 17.33 21.584 17.846 21.308C18.362 21.032 18.776 20.618 19.088 20.066C19.412 19.514 19.574 18.842 19.574 18.05C19.574 17.258 19.418 16.586 19.106 16.034C18.794 15.482 18.386 15.074 17.882 14.81C17.378 14.534 16.832 14.396 16.244 14.396C15.644 14.396 15.092 14.534 14.588 14.81C14.096 15.074 13.7 15.482 13.4 16.034C13.1 16.586 12.95 17.258 12.95 18.05C12.95 18.854 13.094 19.532 13.382 20.084C13.682 20.636 14.078 21.05 14.57 21.326C15.062 21.59 15.602 21.722 16.19 21.722ZM36.5416 13.136L33.4636 23H31.7716L29.3956 15.17L27.0196 23H25.3276L22.2316 13.136H23.9056L26.1736 21.416L28.6216 13.136H30.2956L32.6896 21.434L34.9216 13.136H36.5416ZM47.1673 17.69C47.1673 18.002 47.1493 18.332 47.1133 18.68H39.2293C39.2893 19.652 39.6193 20.414 40.2193 20.966C40.8313 21.506 41.5693 21.776 42.4333 21.776C43.1413 21.776 43.7293 21.614 44.1973 21.29C44.6773 20.954 45.0133 20.51 45.2053 19.958H46.9693C46.7053 20.906 46.1773 21.68 45.3853 22.28C44.5933 22.868 43.6093 23.162 42.4333 23.162C41.4973 23.162 40.6573 22.952 39.9133 22.532C39.1813 22.112 38.6053 21.518 38.1853 20.75C37.7653 19.97 37.5553 19.07 37.5553 18.05C37.5553 17.03 37.7593 16.136 38.1673 15.368C38.5753 14.6 39.1453 14.012 39.8773 13.604C40.6213 13.184 41.4733 12.974 42.4333 12.974C43.3693 12.974 44.1973 13.178 44.9173 13.586C45.6373 13.994 46.1893 14.558 46.5733 15.278C46.9693 15.986 47.1673 16.79 47.1673 17.69ZM45.4753 17.348C45.4753 16.724 45.3373 16.19 45.0613 15.746C44.7853 15.29 44.4073 14.948 43.9273 14.72C43.4593 14.48 42.9373 14.36 42.3613 14.36C41.5333 14.36 40.8253 14.624 40.2373 15.152C39.6613 15.68 39.3313 16.412 39.2473 17.348H45.4753ZM50.9674 14.738C51.2554 14.174 51.6634 13.736 52.1914 13.424C52.7314 13.112 53.3854 12.956 54.1534 12.956V14.648H53.7214C51.8854 14.648 50.9674 15.644 50.9674 17.636V23H49.3294V13.136H50.9674V14.738ZM65.0442 17.69C65.0442 18.002 65.0262 18.332 64.9902 18.68H57.1062C57.1662 19.652 57.4962 20.414 58.0962 20.966C58.7082 21.506 59.4462 21.776 60.3102 21.776C61.0182 21.776 61.6062 21.614 62.0742 21.29C62.5542 20.954 62.8902 20.51 63.0822 19.958H64.8462C64.5822 20.906 64.0542 21.68 63.2622 22.28C62.4702 22.868 61.4862 23.162 60.3102 23.162C59.3742 23.162 58.5342 22.952 57.7902 22.532C57.0582 22.112 56.4822 21.518 56.0622 20.75C55.6422 19.97 55.4322 19.07 55.4322 18.05C55.4322 17.03 55.6362 16.136 56.0442 15.368C56.4522 14.6 57.0222 14.012 57.7542 13.604C58.4982 13.184 59.3502 12.974 60.3102 12.974C61.2462 12.974 62.0742 13.178 62.7942 13.586C63.5142 13.994 64.0662 14.558 64.4502 15.278C64.8462 15.986 65.0442 16.79 65.0442 17.69ZM63.3522 17.348C63.3522 16.724 63.2142 16.19 62.9382 15.746C62.6622 15.29 62.2842 14.948 61.8042 14.72C61.3362 14.48 60.8142 14.36 60.2382 14.36C59.4102 14.36 58.7022 14.624 58.1142 15.152C57.5382 15.68 57.2082 16.412 57.1242 17.348H63.3522ZM66.5943 18.032C66.5943 17.024 66.7983 16.142 67.2063 15.386C67.6143 14.618 68.1723 14.024 68.8803 13.604C69.6003 13.184 70.4043 12.974 71.2923 12.974C72.0603 12.974 72.7743 13.154 73.4343 13.514C74.0943 13.862 74.5983 14.324 74.9463 14.9V9.68H76.6023V23H74.9463V21.146C74.6223 21.734 74.1423 22.22 73.5063 22.604C72.8703 22.976 72.1263 23.162 71.2743 23.162C70.3983 23.162 69.6003 22.946 68.8803 22.514C68.1723 22.082 67.6143 21.476 67.2063 20.696C66.7983 19.916 66.5943 19.028 66.5943 18.032ZM74.9463 18.05C74.9463 17.306 74.7963 16.658 74.4963 16.106C74.1963 15.554 73.7883 15.134 73.2723 14.846C72.7683 14.546 72.2103 14.396 71.5983 14.396C70.9863 14.396 70.4283 14.54 69.9243 14.828C69.4203 15.116 69.0183 15.536 68.7183 16.088C68.4183 16.64 68.2683 17.288 68.2683 18.032C68.2683 18.788 68.4183 19.448 68.7183 20.012C69.0183 20.564 69.4203 20.99 69.9243 21.29C70.4283 21.578 70.9863 21.722 71.5983 21.722C72.2103 21.722 72.7683 21.578 73.2723 21.29C73.7883 20.99 74.1963 20.564 74.4963 20.012C74.7963 19.448 74.9463 18.794 74.9463 18.05ZM85.8072 14.972C86.1432 14.384 86.6352 13.904 87.2832 13.532C87.9312 13.16 88.6692 12.974 89.4972 12.974C90.3852 12.974 91.1832 13.184 91.8912 13.604C92.5992 14.024 93.1572 14.618 93.5652 15.386C93.9732 16.142 94.1772 17.024 94.1772 18.032C94.1772 19.028 93.9732 19.916 93.5652 20.696C93.1572 21.476 92.5932 22.082 91.8732 22.514C91.1652 22.946 90.3732 23.162 89.4972 23.162C88.6452 23.162 87.8952 22.976 87.2472 22.604C86.6112 22.232 86.1312 21.758 85.8072 21.182V23H84.1692V9.68H85.8072V14.972ZM92.5032 18.032C92.5032 17.288 92.3532 16.64 92.0532 16.088C91.7532 15.536 91.3452 15.116 90.8292 14.828C90.3252 14.54 89.7672 14.396 89.1552 14.396C88.5552 14.396 87.9972 14.546 87.4812 14.846C86.9772 15.134 86.5692 15.56 86.2572 16.124C85.9572 16.676 85.8072 17.318 85.8072 18.05C85.8072 18.794 85.9572 19.448 86.2572 20.012C86.5692 20.564 86.9772 20.99 87.4812 21.29C87.9972 21.578 88.5552 21.722 89.1552 21.722C89.7672 21.722 90.3252 21.578 90.8292 21.29C91.3452 20.99 91.7532 20.564 92.0532 20.012C92.3532 19.448 92.5032 18.788 92.5032 18.032ZM104.829 13.136L98.8893 27.644H97.1973L99.1413 22.892L95.1633 13.136H96.9813L100.077 21.128L103.137 13.136H104.829ZM106.998 23.108C106.686 23.108 106.422 23 106.206 22.784C105.99 22.568 105.882 22.304 105.882 21.992C105.882 21.68 105.99 21.416 106.206 21.2C106.422 20.984 106.686 20.876 106.998 20.876C107.298 20.876 107.55 20.984 107.754 21.2C107.97 21.416 108.078 21.68 108.078 21.992C108.078 22.304 107.97 22.568 107.754 22.784C107.55 23 107.298 23.108 106.998 23.108ZM106.998 15.404C106.686 15.404 106.422 15.296 106.206 15.08C105.99 14.864 105.882 14.6 105.882 14.288C105.882 13.976 105.99 13.712 106.206 13.496C106.422 13.28 106.686 13.172 106.998 13.172C107.298 13.172 107.55 13.28 107.754 13.496C107.97 13.712 108.078 13.976 108.078 14.288C108.078 14.6 107.97 14.864 107.754 15.08C107.55 15.296 107.298 15.404 106.998 15.404Z" fill="#8C9297"/>
<path d="M122.619 24L119.089 17.8666H117.17V24H114.655V8.66644H119.95C121.126 8.66644 122.119 8.87236 122.928 9.28419C123.752 9.69603 124.362 10.2476 124.759 10.9389C125.171 11.6302 125.377 12.4024 125.377 13.2555C125.377 14.2556 125.083 15.1676 124.495 15.9912C123.921 16.8002 123.031 17.3518 121.825 17.6459L125.62 24H122.619ZM117.17 15.8589H119.95C120.891 15.8589 121.597 15.6235 122.068 15.1529C122.553 14.6822 122.796 14.0497 122.796 13.2555C122.796 12.4612 122.56 11.8435 122.09 11.4022C121.619 10.9462 120.906 10.7183 119.95 10.7183H117.17V15.8589ZM126.377 17.8666C126.377 16.6458 126.627 15.5647 127.128 14.6234C127.642 13.682 128.334 12.954 129.201 12.4392C130.084 11.9097 131.055 11.6449 132.114 11.6449C133.07 11.6449 133.901 11.8361 134.607 12.2185C135.327 12.5862 135.901 13.0496 136.328 13.6085V11.8435H138.865V24H136.328V22.1909C135.901 22.7645 135.32 23.2425 134.585 23.6249C133.849 24.0074 133.011 24.1986 132.07 24.1986C131.025 24.1986 130.069 23.9338 129.201 23.4043C128.334 22.8601 127.642 22.11 127.128 21.1539C126.627 20.1832 126.377 19.0874 126.377 17.8666ZM136.328 17.9107C136.328 17.0723 136.151 16.3443 135.798 15.7265C135.46 15.1087 135.011 14.6381 134.452 14.3145C133.893 13.9909 133.29 13.8291 132.643 13.8291C131.996 13.8291 131.393 13.9909 130.834 14.3145C130.275 14.6234 129.819 15.0867 129.466 15.7044C129.128 16.3075 128.959 17.0282 128.959 17.8666C128.959 18.705 129.128 19.4404 129.466 20.0728C129.819 20.7053 130.275 21.1907 130.834 21.529C131.408 21.8526 132.011 22.0144 132.643 22.0144C133.29 22.0144 133.893 21.8526 134.452 21.529C135.011 21.2054 135.46 20.7347 135.798 20.117C136.151 19.4845 136.328 18.7491 136.328 17.9107ZM155.505 11.6449C156.461 11.6449 157.314 11.8435 158.065 12.2406C158.829 12.6377 159.425 13.2261 159.852 14.0056C160.293 14.7852 160.514 15.7265 160.514 16.8296V24H158.02V17.2047C158.02 16.1163 157.748 15.2852 157.204 14.7116C156.66 14.1233 155.917 13.8291 154.976 13.8291C154.034 13.8291 153.284 14.1233 152.725 14.7116C152.181 15.2852 151.909 16.1163 151.909 17.2047V24H149.416V17.2047C149.416 16.1163 149.144 15.2852 148.6 14.7116C148.055 14.1233 147.313 13.8291 146.371 13.8291C145.43 13.8291 144.68 14.1233 144.121 14.7116C143.577 15.2852 143.305 16.1163 143.305 17.2047V24H140.789V11.8435H143.305V13.2334C143.716 12.7333 144.239 12.3436 144.871 12.0641C145.504 11.7846 146.18 11.6449 146.901 11.6449C147.872 11.6449 148.739 11.8508 149.504 12.2627C150.269 12.6745 150.857 13.2702 151.269 14.0497C151.637 13.3143 152.211 12.7333 152.99 12.3068C153.77 11.8655 154.608 11.6449 155.505 11.6449ZM164.85 13.6305C165.277 13.0716 165.858 12.6009 166.593 12.2185C167.329 11.8361 168.16 11.6449 169.086 11.6449C170.145 11.6449 171.109 11.9097 171.976 12.4392C172.859 12.954 173.55 13.682 174.05 14.6234C174.55 15.5647 174.8 16.6458 174.8 17.8666C174.8 19.0874 174.55 20.1832 174.05 21.1539C173.55 22.11 172.859 22.8601 171.976 23.4043C171.109 23.9338 170.145 24.1986 169.086 24.1986C168.16 24.1986 167.336 24.0147 166.615 23.647C165.895 23.2646 165.306 22.7939 164.85 22.235V29.7804H162.335V11.8435H164.85V13.6305ZM172.241 17.8666C172.241 17.0282 172.065 16.3075 171.712 15.7044C171.373 15.0867 170.917 14.6234 170.344 14.3145C169.785 13.9909 169.182 13.8291 168.535 13.8291C167.902 13.8291 167.299 13.9909 166.726 14.3145C166.167 14.6381 165.711 15.1087 165.358 15.7265C165.019 16.3443 164.85 17.0723 164.85 17.9107C164.85 18.7491 165.019 19.4845 165.358 20.117C165.711 20.7347 166.167 21.2054 166.726 21.529C167.299 21.8526 167.902 22.0144 168.535 22.0144C169.182 22.0144 169.785 21.8526 170.344 21.529C170.917 21.1907 171.373 20.7053 171.712 20.0728C172.065 19.4404 172.241 18.705 172.241 17.8666ZM182.042 11.6449C182.998 11.6449 183.851 11.8435 184.601 12.2406C185.366 12.6377 185.962 13.2261 186.389 14.0056C186.815 14.7852 187.028 15.7265 187.028 16.8296V24H184.535V17.2047C184.535 16.1163 184.263 15.2852 183.719 14.7116C183.175 14.1233 182.432 13.8291 181.491 13.8291C180.549 13.8291 179.799 14.1233 179.24 14.7116C178.696 15.2852 178.424 16.1163 178.424 17.2047V24H175.909V11.8435H178.424V13.2334C178.836 12.7333 179.358 12.3436 179.99 12.0641C180.638 11.7846 181.322 11.6449 182.042 11.6449ZM188.019 17.8666C188.019 16.6458 188.269 15.5647 188.769 14.6234C189.284 13.682 189.976 12.954 190.843 12.4392C191.726 11.9097 192.697 11.6449 193.756 11.6449C194.712 11.6449 195.543 11.8361 196.249 12.2185C196.969 12.5862 197.543 13.0496 197.97 13.6085V11.8435H200.507V24H197.97V22.1909C197.543 22.7645 196.962 23.2425 196.227 23.6249C195.491 24.0074 194.653 24.1986 193.711 24.1986C192.667 24.1986 191.711 23.9338 190.843 23.4043C189.976 22.8601 189.284 22.11 188.769 21.1539C188.269 20.1832 188.019 19.0874 188.019 17.8666ZM197.97 17.9107C197.97 17.0723 197.793 16.3443 197.44 15.7265C197.102 15.1087 196.653 14.6381 196.094 14.3145C195.535 13.9909 194.932 13.8291 194.285 13.8291C193.638 13.8291 193.035 13.9909 192.476 14.3145C191.917 14.6234 191.461 15.0867 191.108 15.7044C190.77 16.3075 190.601 17.0282 190.601 17.8666C190.601 18.705 190.77 19.4404 191.108 20.0728C191.461 20.7053 191.917 21.1907 192.476 21.529C193.05 21.8526 193.653 22.0144 194.285 22.0144C194.932 22.0144 195.535 21.8526 196.094 21.529C196.653 21.2054 197.102 20.7347 197.44 20.117C197.793 19.4845 197.97 18.7491 197.97 17.9107ZM204.947 7.67362V24H202.431V7.67362H204.947ZM217.813 11.8435L210.356 29.7142H207.752L210.223 23.8014L205.436 11.8435H208.238L211.657 21.1098L215.209 11.8435H217.813ZM222.745 24.1986C221.789 24.1986 220.928 24.0294 220.163 23.6911C219.413 23.3381 218.817 22.8674 218.376 22.2791C217.935 21.6761 217.7 21.0068 217.67 20.2714H220.274C220.318 20.7862 220.56 21.2201 221.002 21.5731C221.458 21.9114 222.024 22.0805 222.7 22.0805C223.406 22.0805 223.951 21.9482 224.333 21.6834C224.73 21.404 224.929 21.051 224.929 20.6244C224.929 20.1684 224.708 19.8302 224.267 19.6095C223.84 19.3889 223.156 19.1462 222.215 18.8815C221.303 18.6314 220.56 18.3887 219.987 18.1534C219.413 17.9181 218.913 17.5577 218.486 17.0723C218.075 16.5869 217.869 15.9471 217.869 15.1529C217.869 14.5057 218.06 13.9174 218.442 13.3879C218.825 12.8436 219.369 12.4171 220.075 12.1082C220.796 11.7993 221.619 11.6449 222.546 11.6449C223.929 11.6449 225.039 11.9979 225.877 12.7039C226.731 13.3952 227.187 14.3439 227.245 15.55H224.73C224.686 15.0058 224.465 14.5719 224.068 14.2483C223.671 13.9247 223.134 13.7629 222.458 13.7629C221.796 13.7629 221.288 13.8879 220.935 14.138C220.582 14.388 220.406 14.719 220.406 15.1308C220.406 15.4544 220.524 15.7265 220.759 15.9471C220.994 16.1677 221.281 16.3442 221.619 16.4766C221.958 16.5943 222.458 16.7487 223.12 16.9399C224.002 17.1753 224.723 17.418 225.282 17.668C225.855 17.9033 226.348 18.2563 226.76 18.727C227.172 19.1977 227.385 19.8228 227.4 20.6023C227.4 21.2936 227.209 21.9114 226.826 22.4556C226.444 22.9998 225.9 23.4264 225.194 23.7352C224.502 24.0441 223.686 24.1986 222.745 24.1986ZM230.018 10.2329C229.562 10.2329 229.18 10.0784 228.871 9.76957C228.562 9.46069 228.408 9.07827 228.408 8.62231C228.408 8.16635 228.562 7.78393 228.871 7.47505C229.18 7.16618 229.562 7.01174 230.018 7.01174C230.459 7.01174 230.835 7.16618 231.143 7.47505C231.452 7.78393 231.607 8.16635 231.607 8.62231C231.607 9.07827 231.452 9.46069 231.143 9.76957C230.835 10.0784 230.459 10.2329 230.018 10.2329ZM231.254 11.8435V24H228.739V11.8435H231.254ZM237.589 24.1986C236.633 24.1986 235.773 24.0294 235.008 23.6911C234.258 23.3381 233.662 22.8674 233.221 22.2791C232.78 21.6761 232.545 21.0068 232.515 20.2714H235.118C235.163 20.7862 235.405 21.2201 235.847 21.5731C236.303 21.9114 236.869 22.0805 237.545 22.0805C238.251 22.0805 238.796 21.9482 239.178 21.6834C239.575 21.404 239.774 21.051 239.774 20.6244C239.774 20.1684 239.553 19.8302 239.112 19.6095C238.685 19.3889 238.001 19.1462 237.06 18.8815C236.148 18.6314 235.405 18.3887 234.832 18.1534C234.258 17.9181 233.758 17.5577 233.331 17.0723C232.92 16.5869 232.714 15.9471 232.714 15.1529C232.714 14.5057 232.905 13.9174 233.287 13.3879C233.67 12.8436 234.214 12.4171 234.92 12.1082C235.641 11.7993 236.464 11.6449 237.391 11.6449C238.774 11.6449 239.884 11.9979 240.722 12.7039C241.575 13.3952 242.031 14.3439 242.09 15.55H239.575C239.531 15.0058 239.31 14.5719 238.913 14.2483C238.516 13.9247 237.979 13.7629 237.303 13.7629C236.641 13.7629 236.133 13.8879 235.78 14.138C235.427 14.388 235.251 14.719 235.251 15.1308C235.251 15.4544 235.369 15.7265 235.604 15.9471C235.839 16.1677 236.126 16.3442 236.464 16.4766C236.803 16.5943 237.303 16.7487 237.965 16.9399C238.847 17.1753 239.568 17.418 240.127 17.668C240.7 17.9033 241.193 18.2563 241.605 18.727C242.017 19.1977 242.23 19.8228 242.245 20.6023C242.245 21.2936 242.054 21.9114 241.671 22.4556C241.289 22.9998 240.744 23.4264 240.038 23.7352C239.347 24.0441 238.531 24.1986 237.589 24.1986Z" fill="#181B30"/>
</svg>
