<?xml version="1.0" encoding="utf-8"?>
<svg viewBox="130.024 138.991 210.947 210.948" xmlns="http://www.w3.org/2000/svg">
  <defs>
    <linearGradient x1="0" x2="0" y1="0" y2="1" id="gradient-1">
      <stop offset="0.13040000200271606" style="stop-color: rgb(52, 149, 247);"/>
      <stop offset="0.30630001425743103" style="stop-color: rgb(43, 135, 242);"/>
      <stop offset="0.63919997215271" style="stop-color: rgb(20, 97, 229);"/>
      <stop offset="0.7231999635696411" style="stop-color: rgb(14, 87, 225);"/>
    </linearGradient>
  </defs>
  <circle transform="matrix(1.151491, -0.784873, 0.784494, 1.150936, -237.979492, 389.727081)" style="fill: url(#gradient-1);" cx="339.22559957357595" cy="105.49944205100459" r="75.72275691279667"/>
  <g transform="matrix(0.771737, 0, 0, 0.778212, 194.689575, 207.617172)" style="">
    <title>Layer 1</title>
    <g id="transparent_2_">
      <g id="logo_1_">
        <g id="svg_3" transform="matrix(1, 0, 0, 1, -58.922562, -63.973064)">
          <g id="svg_4">
            <g id="svg_5">
              <path id="svg_6" fill="#D1D9E6" d="m74.57837,135.73492l65.3,-67.9c5,-5 12.8,-4.6 18,0.6l37.8,36.4c4,3.9 3.9,11.5 0.2,15.6c-4.8,4.8 -10.3,5.2 -17.6,0.2l-27.4,-29.6l-68.8,65.4c-4.6,3.6 -9.3,6.6 -16.6,1.9c-2.5,-3.3 2.4,-9.9 0.5,-11.8l8.6,-10.8z" class="st3"/>
            </g>
            <g id="svg_7">
              <path id="svg_8" fill="#D1D9E6" d="m71.67837,158.53492c-5.6,-0.2 -10,-3.8 -10,-8.1l0.3,-77.6c0,-4.3 4,-9.5 9.6,-9.7c7.4,0 10.7,6 10.7,10.5l0,77c0.1,4.4 -4.8,8 -10.6,7.9z" class="st3"/>
            </g>
            <g id="svg_9">
              <path id="svg_10" fill="#D1D9E6" d="m147.87837,160.63492c-6.9,0 -9.8,-5.1 -9.8,-9.2l0,-71.2c0,-4 4.3,-8.9 9.8,-9.1c5.8,-0.2 10.6,4.7 10.6,8.9l0,70.4c0,5 -3.5,10.2 -10.6,10.2z" class="st3"/>
            </g>
          </g>
          <g id="svg_11">
            <g id="svg_12">
              <path id="svg_13" fill="#FFFFFF" d="m69.27837,159.33492c-4.3,-0.2 -7.6,-3.8 -7.6,-8.1l0,-77.6c0,-4.3 3.3,-9.5 7.6,-9.7c4.5,-0.2 8.2,5 8.2,9.5l0,78.1c0.1,4.4 -3.7,8 -8.2,7.8z" class="st4"/>
            </g>
            <g id="svg_14">
              <path id="svg_15" fill="#FFFFFF" d="m145.67837,160.13492c-4.4,0 -7.9,-5.1 -7.9,-9.5l0,-76.5c0,-4.4 3.6,-7.9 7.9,-7.9c4.4,0 7.9,3.6 7.9,7.9l0,76.5c0,4.4 -3.5,9.5 -7.9,9.5z" class="st4"/>
            </g>
            <g id="svg_16">
              <path id="svg_17" fill="#FFFFFF" d="m69.67837,158.63492c-2.6,0 -5.2,-1 -7.1,-3l-36,-36.1c-3.9,-4 -3.9,-10.3 0,-14.3c4,-3.9 10.3,-3.9 14.3,0l29,29.2l69.3,-66c3.9,-3.7 10,-3.7 13.9,0l37.7,36.4c4,3.9 4.1,10.2 0.3,14.3c-3.8,4 -10.2,4.1 -14.3,0.3l-30.8,-29.7l-69.5,66c-1.9,1.9 -4.3,2.9 -6.8,2.9z" class="st4"/>
            </g>
          </g>
          <path id="svg_18" fill="#FFFFFF" d="m138.77837,102.33492l-4.4,4.1c0,0 1.2,-6.9 -2.3,-3.6c-3.6,3.4 5.5,-8.6 5.5,-8.6l1.8,2.3l-0.6,5.8z" class="st4"/>
          <path id="svg_19" fill="#FFFFFF" d="m153.57837,101.33492c0,0 0.2,-4.2 4.8,3l0,-5.7l-5,-2.6l0.2,5.3z" class="st4"/>
          <path id="svg_20" fill="#FFFFFF" d="m77.57837,121.33492c0,0 0.7,4.7 4.8,-1.4l0,5.7l-5,2.6l0.2,-6.9z" class="st4"/>
        </g>
      </g>
    </g>
  </g>
</svg>