<svg width="24" height="24" viewBox="0 0 24 24" fill="none" xmlns="http://www.w3.org/2000/svg">
<path d="M11.7071 6.70711C12.0976 6.31658 12.0976 5.68342 11.7071 5.29289C11.3166 4.90237 10.6834 4.90237 10.2929 5.29289L4.29325 11.2925C4.29337 11.2924 4.29313 11.2927 4.29325 11.2925C4.26885 11.3169 4.2456 11.3427 4.22425 11.3688C4.10265 11.5179 4.03051 11.6939 4.00781 11.8749C4.00273 11.9154 4.00013 11.9562 4 11.997L4 12L4 12.0029C4.0004 12.1374 4.02735 12.2657 4.07588 12.3828C4.07809 12.3881 4.08035 12.3935 4.08266 12.3988C4.13129 12.5107 4.20136 12.6156 4.29289 12.7071L10.2929 18.7071C10.6834 19.0976 11.3166 19.0976 11.7071 18.7071C12.0976 18.3166 12.0976 17.6834 11.7071 17.2929L7.41421 13H20C20.5523 13 21 12.5523 21 12C21 11.4477 20.5523 11 20 11H7.41421L11.7071 6.70711Z" fill="#0E0E0E"/>
</svg>
