<svg width="18" height="18" viewBox="0 0 18 18" fill="#181B30" xmlns="http://www.w3.org/2000/svg">
<path d="M9 3C9.41421 3 9.75 3.33579 9.75 3.75V12.4393L12.9697 9.21967C13.2626 8.92678 13.7374 8.92678 14.0303 9.21967C14.3232 9.51256 14.3232 9.98744 14.0303 10.2803L9.53033 14.7803C9.23744 15.0732 8.76256 15.0732 8.46967 14.7803C8.46958 14.7802 8.46976 14.7804 8.46967 14.7803L3.96967 10.2803C3.67678 9.98744 3.67678 9.51256 3.96967 9.21967C4.26256 8.92678 4.73744 8.92678 5.03033 9.21967L8.25 12.4393V3.75C8.25 3.33579 8.58579 3 9 3Z" />
</svg>
