<svg width="26" height="26" viewBox="0 0 26 26" fill="none" xmlns="http://www.w3.org/2000/svg">
<path d="M11.816 8.4241C11.816 7.84253 12.2874 7.37108 12.869 7.37108H12.8795C13.4611 7.37108 13.9325 7.84253 13.9325 8.4241C13.9325 9.00567 13.4611 9.47713 12.8795 9.47713H12.869C12.2874 9.47713 11.816 9.00567 11.816 8.4241Z" fill="#8C9297"/>
<path d="M11.8161 11.5832C11.2345 11.5832 10.7631 12.0546 10.7631 12.6362C10.7631 13.2178 11.2345 13.6892 11.8161 13.6892V16.8483C11.8161 17.4299 12.2875 17.9013 12.8691 17.9013H13.9221C14.5037 17.9013 14.9752 17.4299 14.9752 16.8483C14.9752 16.2667 14.5037 15.7953 13.9221 15.7953V12.6362C13.9221 12.0546 13.4507 11.5832 12.8691 11.5832H11.8161Z" fill="#8C9297"/>
<path fill-rule="evenodd" clip-rule="evenodd" d="M2.33887 12.6362C2.33887 6.82051 7.05342 2.10596 12.8691 2.10596C18.6848 2.10596 23.3994 6.82051 23.3994 12.6362C23.3994 18.4519 18.6848 23.1664 12.8691 23.1664C7.05342 23.1664 2.33887 18.4519 2.33887 12.6362ZM12.8691 4.21201C8.21656 4.21201 4.44492 7.98364 4.44492 12.6362C4.44492 17.2888 8.21656 21.0604 12.8691 21.0604C17.5217 21.0604 21.2933 17.2888 21.2933 12.6362C21.2933 7.98364 17.5217 4.21201 12.8691 4.21201Z" fill="#8C9297"/>
</svg>
