<svg width="71" height="60" viewBox="0 0 71 60" fill="none" xmlns="http://www.w3.org/2000/svg">
<path d="M25.1722 21.5361H20.6138V50.5225H25.1722V21.5361Z" fill="#C6C5CA"/>
<path d="M25.9531 26.2693H19.8321C19.3809 26.2693 19.0151 25.9035 19.0151 25.4523V22.6777H26.7701V25.4523C26.7701 25.9036 26.4043 26.2693 25.9531 26.2693Z" fill="#B2B1B5"/>
<path d="M26.7701 49.4461H19.0151V46.6715C19.0151 46.2203 19.3809 45.8545 19.8321 45.8545H25.9531C26.4043 45.8545 26.7701 46.2203 26.7701 46.6715V49.4461Z" fill="#B2B1B5"/>
<path d="M37.3861 21.5361H32.8276V50.5225H37.3861V21.5361Z" fill="#C6C5CA"/>
<path d="M38.1675 26.2693H32.0465C31.5953 26.2693 31.2295 25.9035 31.2295 25.4523V22.6777H38.9845V25.4523C38.9845 25.9036 38.6187 26.2693 38.1675 26.2693Z" fill="#B2B1B5"/>
<path d="M38.9845 49.4461H31.2295V46.6715C31.2295 46.2203 31.5953 45.8545 32.0465 45.8545H38.1675C38.6187 45.8545 38.9845 46.2203 38.9845 46.6715V49.4461Z" fill="#F7A738"/>
<path d="M49.5999 21.5361H45.0415V50.5225H49.5999V21.5361Z" fill="#C6C5CA"/>
<path d="M50.3819 26.2693H44.2608C43.8096 26.2693 43.4438 25.9035 43.4438 25.4523V22.6777H51.1988V25.4523C51.1988 25.9036 50.8331 26.2693 50.3819 26.2693Z" fill="#B2B1B5"/>
<path d="M51.1988 49.4461H43.4438V46.6715C43.4438 46.2203 43.8096 45.8545 44.2608 45.8545H50.3819C50.8331 45.8545 51.1988 46.2203 51.1988 46.6715V49.4461Z" fill="#F7A738"/>
<path d="M12.9583 21.5361H8.3999V50.5225H12.9583V21.5361Z" fill="#C6C5CA"/>
<path d="M13.7394 26.2693H7.61825C7.16705 26.2693 6.80127 25.9035 6.80127 25.4523V22.6777H14.5563V25.4523C14.5563 25.9036 14.1906 26.2693 13.7394 26.2693Z" fill="#B2B1B5"/>
<path d="M14.5563 49.4461H6.80127V46.6715C6.80127 46.2203 7.16705 45.8545 7.61825 45.8545H13.7393C14.1905 45.8545 14.5563 46.2203 14.5563 46.6715V49.4461Z" fill="#B2B1B5"/>
<path d="M54.4999 22.6779H3.50029C3.05918 22.6779 2.70166 22.3203 2.70166 21.8793V18.4676C2.70166 18.0265 3.05929 17.6689 3.50029 17.6689H54.4998C54.9409 17.6689 55.2984 18.0266 55.2984 18.4676V21.8793C55.2985 22.3203 54.941 22.6779 54.4999 22.6779Z" fill="#E0E0E2"/>
<path d="M54.4997 17.6689H48.9868V22.678H54.4997C54.9409 22.678 55.2984 22.3204 55.2984 21.8794V18.4677C55.2984 18.0266 54.9409 17.6689 54.4997 17.6689Z" fill="#E0E0E2"/>
<path d="M55.7953 52.9218H2.2041V50.6687C2.2041 49.9941 2.75091 49.4473 3.4255 49.4473H54.574C55.2486 49.4473 55.7954 49.9941 55.7954 50.6687V52.9218H55.7953Z" fill="#E0E0E2"/>
<path d="M54.5742 49.4473H49.4839V52.9218H55.7955V50.6687C55.7956 49.9941 55.2488 49.4473 54.5742 49.4473Z" fill="#EFB635"/>
<path d="M57.5803 56.3964H0.419593C0.18782 56.3964 0 56.2085 0 55.9768V54.1433C0 53.4687 0.546808 52.9219 1.2214 52.9219H56.7786C57.4532 52.9219 58 53.4687 58 54.1433V55.9768C57.9999 56.2086 57.812 56.3964 57.5803 56.3964Z" fill="#B2B1B5"/>
<path d="M56.7783 52.9219H51.7173V56.3964H57.58C57.8118 56.3964 57.9996 56.2085 57.9996 55.9767V54.1432C57.9997 53.4687 57.4529 52.9219 56.7783 52.9219Z" fill="#E8932E"/>
<path d="M29.0306 1.704L0.32623 16.7613C0.16707 16.8448 0.0673828 17.0096 0.0673828 17.1893V18.7312C0.0673828 18.998 0.28375 19.2144 0.55064 19.2144H57.4494C57.7163 19.2144 57.9327 18.998 57.9327 18.7312V17.1851C57.9327 17.0076 57.8354 16.8443 57.6793 16.76L29.8479 1.7091C29.5934 1.57146 29.287 1.56953 29.0306 1.704Z" fill="#C6C5CA"/>
<path d="M57.6793 16.759L29.8479 1.70818C29.5934 1.57054 29.287 1.5685 29.0306 1.70297L24.0537 4.31364L51.6058 19.2135H57.4494C57.7163 19.2135 57.9327 18.9971 57.9327 18.7301V17.1841C57.9327 17.0067 57.8354 16.8434 57.6793 16.759Z" fill="#B2B1B5"/>
<path d="M70.916 31.0287V56.9618C70.916 58.6371 69.5626 59.9905 67.8873 59.9905H30.0287C28.3534 59.9905 27 58.6371 27 56.9618V31.0287C27 29.3534 28.3534 28 30.0287 28H67.8873C69.5626 28 70.916 29.3534 70.916 31.0287Z" fill="#FE4F60"/>
<path d="M70.916 31.0287V33.3759C70.916 34.2656 70.1588 34.8903 69.4774 34.8903C53.5768 35.6758 41.1591 45.1973 35.963 59.0157C35.7453 59.6025 35.1775 60 34.5433 60H30.0287C28.3534 60 27 58.6466 27 56.9713V31.0287C27 29.3534 28.3534 28 30.0287 28H67.8873C69.5626 28 70.916 29.3534 70.916 31.0287Z" fill="#FF6D7A"/>
<path d="M27 34.8145H70.916V41.2504H27V34.8145Z" fill="#42434D"/>
<path d="M69.8749 34.8145C68.9379 35.1173 59.5963 34.6536 49.8761 41.2315C49.8382 41.2599 50.9077 41.2504 27 41.2504V34.8145H69.8749Z" fill="#4D4E59"/>
<path d="M39.493 49.1052H33.1517C32.7353 49.1052 32.3945 48.7644 32.3945 48.348C32.3945 47.9315 32.7353 47.5908 33.1517 47.5908H39.493C39.9095 47.5908 40.2502 47.9315 40.2502 48.348C40.2502 48.7644 39.9095 49.1052 39.493 49.1052Z" fill="white"/>
<path d="M39.493 53.8376H33.1517C32.7353 53.8376 32.3945 53.4969 32.3945 53.0804C32.3945 52.664 32.7353 52.3232 33.1517 52.3232H39.493C39.9095 52.3232 40.2502 52.664 40.2502 53.0804C40.2502 53.4969 39.9095 53.8376 39.493 53.8376Z" fill="white"/>
</svg>
