<svg width="16" height="16" viewBox="0 0 16 16" fill="none" xmlns="http://www.w3.org/2000/svg">
<g clip-path="url(#clip0_1_1322)">
<path d="M11.3133 9.62683C12.2266 9.78016 13.2333 9.62016 13.94 9.14683C14.88 8.52016 14.88 7.4935 13.94 6.86683C13.2266 6.3935 12.2066 6.2335 11.2933 6.3935M4.66663 9.62683C3.75329 9.78016 2.74663 9.62016 2.03996 9.14683C1.09996 8.52016 1.09996 7.4935 2.03996 6.86683C2.75329 6.3935 3.77329 6.2335 4.68663 6.3935M12 4.7735C11.958 4.76682 11.9153 4.76682 11.8733 4.7735C11.4284 4.75741 11.0072 4.56897 10.6986 4.248C10.3901 3.92704 10.2185 3.4987 10.22 3.0535C10.22 2.10016 10.9866 1.3335 11.94 1.3335C12.3961 1.3335 12.8336 1.51471 13.1562 1.83727C13.4787 2.15984 13.66 2.59732 13.66 3.0535C13.6587 3.49901 13.4853 3.9268 13.1759 4.24737C12.8665 4.56794 12.4452 4.75646 12 4.7735V4.7735ZM3.97996 4.7735C4.01996 4.76683 4.06663 4.76683 4.10663 4.7735C4.55154 4.75741 4.97277 4.56897 5.28129 4.248C5.58981 3.92704 5.76146 3.4987 5.75996 3.0535C5.75996 2.10016 4.99329 1.3335 4.03996 1.3335C3.58379 1.3335 3.1463 1.51471 2.82374 1.83727C2.50117 2.15984 2.31996 2.59732 2.31996 3.0535C2.32663 3.98683 3.05996 4.74016 3.97996 4.7735ZM7.99996 9.7535C7.958 9.74682 7.91525 9.74682 7.8733 9.7535C7.42838 9.73741 7.00716 9.54897 6.69863 9.228C6.39011 8.90704 6.21846 8.4787 6.21996 8.0335C6.21996 7.08016 6.98663 6.3135 7.93996 6.3135C8.39613 6.3135 8.83362 6.49471 9.15619 6.81727C9.47875 7.13983 9.65996 7.57732 9.65996 8.0335C9.65329 8.96683 8.91996 9.72683 7.99996 9.7535ZM6.05996 11.8535C5.11996 12.4802 5.11996 13.5068 6.05996 14.1335C7.12663 14.8468 8.87329 14.8468 9.93996 14.1335C10.88 13.5068 10.88 12.4802 9.93996 11.8535C8.87996 11.1468 7.12663 11.1468 6.05996 11.8535Z" stroke="black" stroke-width="1.5" stroke-linecap="round" stroke-linejoin="round"/>
</g>
<defs>
<clipPath id="clip0_1_1322">
<rect width="16" height="16" fill="white"/>
</clipPath>
</defs>
</svg>
