<svg width="34" height="34" viewBox="0 0 34 34" fill="none" xmlns="http://www.w3.org/2000/svg">
<path d="M27.3427 15.7212C27.4187 16.2682 27.9238 16.65 28.4708 16.574C29.0178 16.498 29.3997 15.9929 29.3237 15.4459L27.3427 15.7212ZM5.45174 12.3656C5.23935 12.8754 5.48046 13.4609 5.99028 13.6733C6.50009 13.8857 7.08555 13.6446 7.29794 13.1348L5.45174 12.3656ZM6.6665 7.08353C6.6665 6.53124 6.21879 6.08353 5.6665 6.08353C5.11422 6.08353 4.6665 6.53124 4.6665 7.08353H6.6665ZM5.6665 12.7502H4.6665C4.6665 13.3025 5.11422 13.7502 5.6665 13.7502V12.7502ZM11.3332 13.7502C11.8855 13.7502 12.3332 13.3025 12.3332 12.7502C12.3332 12.1979 11.8855 11.7502 11.3332 11.7502V13.7502ZM29.3237 15.4459C28.5494 9.87454 24.1425 5.51044 18.5638 4.79062L18.3079 6.77417C22.9922 7.37859 26.6926 11.043 27.3427 15.7212L29.3237 15.4459ZM18.5638 4.79062C12.9852 4.07079 7.61485 7.17331 5.45174 12.3656L7.29794 13.1348C9.11426 8.77487 13.6236 6.16975 18.3079 6.77417L18.5638 4.79062ZM4.6665 7.08353V12.7502H6.6665V7.08353H4.6665ZM5.6665 13.7502H11.3332V11.7502H5.6665V13.7502Z" fill="#181B30"/>
<path d="M6.65699 18.2789C6.58096 17.7318 6.07588 17.35 5.52886 17.426C4.98183 17.502 4.6 18.0071 4.67602 18.5542L6.65699 18.2789ZM28.5479 21.6344C28.7603 21.1246 28.5192 20.5391 28.0094 20.3267C27.4996 20.1144 26.9141 20.3555 26.7017 20.8653L28.5479 21.6344ZM27.3332 26.9165C27.3332 27.4688 27.7809 27.9165 28.3332 27.9165C28.8855 27.9165 29.3332 27.4688 29.3332 26.9165H27.3332ZM28.3332 21.2498H29.3332C29.3332 20.6976 28.8855 20.2498 28.3332 20.2498V21.2498ZM22.6665 20.2498C22.1142 20.2498 21.6665 20.6976 21.6665 21.2498C21.6665 21.8021 22.1142 22.2498 22.6665 22.2498V20.2498ZM4.67602 18.5542C5.45028 24.1255 9.8572 28.4896 15.4358 29.2094L15.6918 27.2259C11.0075 26.6214 7.30711 22.957 6.65699 18.2789L4.67602 18.5542ZM15.4358 29.2094C21.0145 29.9292 26.3848 26.8267 28.5479 21.6344L26.7017 20.8653C24.8854 25.2252 20.376 27.8303 15.6918 27.2259L15.4358 29.2094ZM29.3332 26.9165V21.2498H27.3332V26.9165H29.3332ZM28.3332 20.2498H22.6665V22.2498H28.3332V20.2498Z" fill="#181B30"/>
</svg>
